# xmcd CD database file
#
# Track frame offsets:
#	225
#	9442
#	19137
#	28830
#	40800
#	59512
#	70105
#	88142
#	100215
#	113720
#	125462
#	139970
#	152015
#	161605
#	177800
#	185665
#
# Disc length: 2610 seconds
#
# Revision: 1
# Processed by: cddbd v1.5.1PL2 Copyright (c) Steve Scherf et al.
# Submitted via: CDex 1.51
#
DISCID=d70a2f10
DTITLE=Various Artist - Trampske perly 1
DYEAR=1900
DGENRE=Folk
TTITLE0=Ruty-Suty
TTITLE1=Buraky
TTITLE2=Stanky
TTITLE3=Severni vitr
TTITLE4=Montgomery
TTITLE5=Panenka
TTITLE6=Pampelisky
TTITLE7=Zlatokop Tom
TTITLE8=Bessie
TTITLE9=Japonecka
TTITLE10=Bedna od whisky
TTITLE11=Okor
TTITLE12=Valcicek
TTITLE13=Praminek vlasu
TTITLE14=Rodne udoli
TTITLE15=Trampske perly
EXTD=
EXTT0=
EXTT1=
EXTT2=
EXTT3=
EXTT4=
EXTT5=
EXTT6=
EXTT7=
EXTT8=
EXTT9=
EXTT10=
EXTT11=
EXTT12=
EXTT13=
EXTT14=
EXTT15=
PLAYORDER=
